<?xml version="1.0" standalone="no"?>
<!DOCTYPE svg PUBLIC "-//W3C//DTD SVG 20010904//EN"
 "http://www.w3.org/TR/2001/REC-SVG-20010904/DTD/svg10.dtd">
<svg version="1.0" xmlns="http://www.w3.org/2000/svg"
 width="530.000000pt" height="471.000000pt" viewBox="0 0 530.000000 471.000000"
 preserveAspectRatio="xMidYMid meet">
<metadata>
Created by potrace 1.16, written by Peter Selinger 2001-2019
</metadata>
<g transform="translate(0.000000,471.000000) scale(0.100000,-0.100000)"
fill="#000000" stroke="none">
<path d="M2824 4100 c387 -45 774 -219 1017 -459 129 -128 297 -350 282 -374
-3 -6 -2 -7 4 -4 5 3 24 -24 42 -60 25 -51 29 -68 20 -77 -7 -6 -9 -6 -6 -1 3
6 -3 28 -13 49 -10 23 -19 33 -22 25 -3 -8 1 -20 9 -27 7 -7 13 -21 13 -30 0
-9 -13 2 -31 26 -37 51 -49 55 -19 7 61 -99 148 -309 179 -430 118 -474 47
-951 -202 -1350 -387 -622 -1120 -929 -1836 -769 -323 72 -606 229 -840 465
-634 641 -666 1657 -72 2344 20 23 13 18 -14 -11 -76 -79 -156 -196 -224 -324
-92 -175 -139 -315 -180 -532 -16 -87 -26 -115 -50 -145 -16 -21 -34 -54 -40
-73 -9 -28 -10 -14 -5 65 23 409 202 818 491 1126 151 160 321 284 528 384
144 70 239 103 395 139 58 14 96 25 85 25 -62 2 -327 -78 -458 -138 -638 -295
-1057 -950 -1057 -1654 0 -136 21 -332 45 -417 9 -30 20 -71 25 -91 15 -59 97
-255 146 -349 85 -166 238 -359 394 -498 231 -207 538 -363 825 -421 256 -51
463 -53 735 -6 313 53 659 231 902 463 301 287 496 669 554 1081 23 167 14
432 -20 597 -102 486 -396 914 -810 1179 -224 143 -556 257 -786 269 l-85 5
79 -9z m-1805 -2562 c60 -121 161 -257 286 -386 111 -115 310 -275 391 -315
24 -11 44 -27 44 -35 0 -7 4 -11 9 -7 6 3 25 -4 43 -16 18 -12 25 -19 16 -16
-11 4 -15 2 -12 -7 3 -7 -2 -18 -10 -25 -16 -13 -18 -12 -182 96 -290 190
-534 506 -668 865 -48 129 -45 150 3 26 21 -53 57 -134 80 -180z"/>
<path d="M2445 3984 c-122 -18 -260 -50 -347 -80 -141 -48 -324 -141 -438
-221 -123 -88 -317 -282 -403 -403 -129 -182 -226 -407 -278 -640 -30 -137
-38 -435 -15 -582 28 -178 114 -457 136 -443 5 3 7 13 3 23 -3 9 17 -27 45
-80 112 -217 299 -448 462 -569 36 -27 70 -53 77 -59 29 -24 102 -59 107 -51
8 13 -4 41 -17 41 -7 0 -7 -4 1 -12 20 -20 13 -32 -8 -13 -24 22 -25 31 -5 39
9 3 24 -3 35 -14 11 -11 20 -18 20 -16 0 3 47 -18 105 -45 327 -154 696 -202
1032 -133 399 80 773 326 1000 656 33 49 54 69 74 73 16 4 29 10 29 14 0 6
-170 104 -1100 633 -162 92 -298 168 -302 168 -5 0 -8 -34 -8 -75 0 -43 -4
-75 -10 -75 -6 0 -10 32 -10 76 0 68 -2 75 -17 70 -10 -4 -265 -148 -568 -320
-302 -173 -613 -350 -690 -393 -142 -81 -155 -84 -141 -29 5 22 104 100 1015
798 l165 127 30 -15 31 -15 -32 28 -31 28 10 75 c189 1443 176 1353 204 1378
14 12 30 20 34 17 6 -4 10 -330 11 -778 0 -425 2 -785 3 -802 1 -16 7 -30 13
-30 6 0 58 25 116 55 l104 55 69 -54 c135 -104 1065 -816 1084 -829 17 -13 21
-9 49 45 42 84 96 243 120 357 24 108 45 326 35 368 -3 15 -3 32 1 38 9 14 54
-42 66 -82 12 -38 4 -165 -17 -292 -21 -121 -10 -121 12 1 29 151 26 490 -5
633 -130 607 -545 1078 -1123 1275 -180 61 -277 76 -503 80 -110 2 -213 1
-230 -1z m115 -126 c0 -18 -18 -157 -40 -308 -23 -151 -59 -403 -80 -560 -41
-293 -67 -469 -75 -507 -3 -12 -44 -52 -92 -90 -111 -87 -451 -355 -562 -442
-46 -36 -172 -137 -280 -223 -108 -87 -199 -158 -202 -158 -9 0 -84 183 -108
266 -84 283 -93 586 -26 849 23 91 99 299 118 323 5 7 7 15 4 18 -3 3 1 13 9
22 35 39 161 242 155 248 -3 4 0 4 7 0 11 -6 17 5 13 26 0 5 3 7 8 5 5 -1 46
37 92 84 46 47 109 105 139 129 30 24 54 47 53 51 -2 5 0 8 5 8 20 -3 32 2 26
13 -4 6 -3 8 3 5 5 -3 25 4 44 17 178 120 410 205 649 240 144 21 140 21 140
-16z m380 2 c306 -53 613 -221 847 -463 253 -263 393 -569 434 -949 27 -243
-16 -533 -112 -765 -56 -134 -33 -138 -275 54 -212 169 -449 356 -702 556 -75
59 -155 124 -178 145 l-41 37 -56 405 c-90 639 -137 982 -137 998 0 16 41 13
220 -18z m406 -71 c23 -8 26 -12 14 -20 -11 -8 -10 -9 7 -4 18 5 51 -12 140
-71 229 -150 445 -397 565 -644 68 -141 69 -163 1 -29 -86 167 -159 267 -307
415 -130 130 -273 237 -408 304 -26 13 -44 28 -41 33 3 6 1 7 -5 3 -6 -3 -22
-1 -36 5 -24 11 -24 13 -8 25 11 8 23 9 34 3 9 -5 29 -14 44 -20z m-469 -1907
c120 -48 415 -167 655 -263 279 -111 438 -179 438 -188 0 -28 -97 -149 -204
-256 -241 -241 -526 -389 -854 -446 -142 -24 -370 -25 -521 -3 -119 17 -292
71 -426 133 -105 49 -280 164 -383 251 -72 62 -198 204 -249 282 -25 38 -26
41 -10 53 39 28 1281 524 1314 525 12 0 120 -40 240 -88z"/>
</g>
</svg>
